solid TD03B-M
facet normal 0 0 -1
  outer loop
    vertex -89.96065 -89.7291969229831 94
    vertex -83.4629475173286 -88.4367235396262 94
    vertex -83.33565 -89.7291969229831 94
  endloop
endfacet
facet normal 0 0 -1
  outer loop
    vertex -89.96065 -89.7291969229831 94
    vertex -83.8399480971127 -87.1939191835644 94
    vertex -83.4629475173286 -88.4367235396262 94
  endloop
endfacet
facet normal 0 0 -1
  outer loop
    vertex -89.96065 -89.7291969229831 94
    vertex -84.4521638184956 -86.0485441292282 94
    vertex -83.8399480971127 -87.1939191835644 94
  endloop
endfacet
facet normal 0 0 -1
  outer loop
    vertex -89.96065 -89.7291969229831 94
    vertex -85.2760675746391 -85.0446144976222 94
    vertex -84.4521638184956 -86.0485441292282 94
  endloop
endfacet
facet normal 0 0 -1
  outer loop
    vertex -89.96065 -89.7291969229831 94
    vertex -86.2799972062451 -84.2207107414787 94
    vertex -85.2760675746391 -85.0446144976222 94
  endloop
endfacet
facet normal 0 0 -1
  outer loop
    vertex -89.96065 -89.7291969229831 94
    vertex -87.4253722605813 -83.6084950200958 94
    vertex -86.2799972062451 -84.2207107414787 94
  endloop
endfacet
facet normal 0 0 -1
  outer loop
    vertex -89.96065 -89.7291969229831 94
    vertex -88.6681766166432 -83.2314944403117 94
    vertex -87.4253722605813 -83.6084950200958 94
  endloop
endfacet
facet normal 0 0 -1
  outer loop
    vertex -89.96065 -89.7291969229831 94
    vertex -89.96065 -83.1041969229831 94
    vertex -88.6681766166432 -83.2314944403117 94
  endloop
endfacet
facet normal 0 0 -1
  outer loop
    vertex -89.96065 -89.7291969229831 94
    vertex -91.2531233833569 -83.2314944403117 94
    vertex -89.96065 -83.1041969229831 94
  endloop
endfacet
facet normal 0 0 -1
  outer loop
    vertex -89.96065 -89.7291969229831 94
    vertex -92.4959277394187 -83.6084950200958 94
    vertex -91.2531233833569 -83.2314944403117 94
  endloop
endfacet
facet normal 0 0 -1
  outer loop
    vertex -89.96065 -89.7291969229831 94
    vertex -93.6413027937549 -84.2207107414787 94
    vertex -92.4959277394187 -83.6084950200958 94
  endloop
endfacet
facet normal 0 0 -1
  outer loop
    vertex -89.96065 -89.7291969229831 94
    vertex -94.6452324253609 -85.0446144976222 94
    vertex -93.6413027937549 -84.2207107414787 94
  endloop
endfacet
facet normal 0 0 -1
  outer loop
    vertex -89.96065 -89.7291969229831 94
    vertex -95.4691361815044 -86.0485441292282 94
    vertex -94.6452324253609 -85.0446144976222 94
  endloop
endfacet
facet normal 0 0 -1
  outer loop
    vertex -89.96065 -89.7291969229831 94
    vertex -96.0813519028873 -87.1939191835644 94
    vertex -95.4691361815044 -86.0485441292282 94
  endloop
endfacet
facet normal 0 0 -1
  outer loop
    vertex -89.96065 -89.7291969229831 94
    vertex -96.4583524826714 -88.4367235396262 94
    vertex -96.0813519028873 -87.1939191835644 94
  endloop
endfacet
facet normal 0 0 -1
  outer loop
    vertex -89.96065 -89.7291969229831 94
    vertex -96.58565 -89.7291969229831 94
    vertex -96.4583524826714 -88.4367235396262 94
  endloop
endfacet
facet normal 0 0 -1
  outer loop
    vertex -89.96065 -89.7291969229831 94
    vertex -96.4583524826714 -91.0216703063399 94
    vertex -96.58565 -89.7291969229831 94
  endloop
endfacet
facet normal 0 0 -1
  outer loop
    vertex -89.96065 -89.7291969229831 94
    vertex -96.0813519028873 -92.2644746624018 94
    vertex -96.4583524826714 -91.0216703063399 94
  endloop
endfacet
facet normal 0 0 -1
  outer loop
    vertex -89.96065 -89.7291969229831 94
    vertex -95.4691361815044 -93.4098497167379 94
    vertex -96.0813519028873 -92.2644746624018 94
  endloop
endfacet
facet normal 0 0 -1
  outer loop
    vertex -89.96065 -89.7291969229831 94
    vertex -94.6452324253609 -94.413779348344 94
    vertex -95.4691361815044 -93.4098497167379 94
  endloop
endfacet
facet normal 0 0 -1
  outer loop
    vertex -89.96065 -89.7291969229831 94
    vertex -93.6413027937549 -95.2376831044874 94
    vertex -94.6452324253609 -94.413779348344 94
  endloop
endfacet
facet normal 0 0 -1
  outer loop
    vertex -89.96065 -89.7291969229831 94
    vertex -92.4959277394187 -95.8498988258704 94
    vertex -93.6413027937549 -95.2376831044874 94
  endloop
endfacet
facet normal 0 0 -1
  outer loop
    vertex -89.96065 -89.7291969229831 94
    vertex -91.2531233833569 -96.2268994056545 94
    vertex -92.4959277394187 -95.8498988258704 94
  endloop
endfacet
facet normal 0 0 -1
  outer loop
    vertex -89.96065 -89.7291969229831 94
    vertex -89.96065 -96.3541969229831 94
    vertex -91.2531233833569 -96.2268994056545 94
  endloop
endfacet
facet normal 0 0 -1
  outer loop
    vertex -89.96065 -89.7291969229831 94
    vertex -88.6681766166432 -96.2268994056545 94
    vertex -89.96065 -96.3541969229831 94
  endloop
endfacet
facet normal 0 0 -1
  outer loop
    vertex -89.96065 -89.7291969229831 94
    vertex -87.4253722605813 -95.8498988258704 94
    vertex -88.6681766166432 -96.2268994056545 94
  endloop
endfacet
facet normal 0 0 -1
  outer loop
    vertex -89.96065 -89.7291969229831 94
    vertex -86.2799972062451 -95.2376831044874 94
    vertex -87.4253722605813 -95.8498988258704 94
  endloop
endfacet
facet normal 0 0 -1
  outer loop
    vertex -89.96065 -89.7291969229831 94
    vertex -85.2760675746391 -94.413779348344 94
    vertex -86.2799972062451 -95.2376831044874 94
  endloop
endfacet
facet normal 0 0 -1
  outer loop
    vertex -89.96065 -89.7291969229831 94
    vertex -84.4521638184956 -93.4098497167379 94
    vertex -85.2760675746391 -94.413779348344 94
  endloop
endfacet
facet normal 0 0 -1
  outer loop
    vertex -89.96065 -89.7291969229831 94
    vertex -83.8399480971127 -92.2644746624018 94
    vertex -84.4521638184956 -93.4098497167379 94
  endloop
endfacet
facet normal 0 0 -1
  outer loop
    vertex -89.96065 -89.7291969229831 94
    vertex -83.4629475173286 -91.0216703063399 94
    vertex -83.8399480971127 -92.2644746624018 94
  endloop
endfacet
facet normal 0 0 -1
  outer loop
    vertex -89.96065 -89.7291969229831 94
    vertex -83.33565 -89.7291969229831 94
    vertex -83.4629475173286 -91.0216703063399 94
  endloop
endfacet
facet normal 0 0 1
  outer loop
    vertex -89.96065 -89.7291969229831 94.1
    vertex -83.33565 -89.7291969229831 94.1
    vertex -83.4629475173286 -88.4367235396262 94.1
  endloop
endfacet
facet normal 0 0 1
  outer loop
    vertex -89.96065 -89.7291969229831 94.1
    vertex -83.4629475173286 -88.4367235396262 94.1
    vertex -83.8399480971127 -87.1939191835644 94.1
  endloop
endfacet
facet normal 0 0 1
  outer loop
    vertex -89.96065 -89.7291969229831 94.1
    vertex -83.8399480971127 -87.1939191835644 94.1
    vertex -84.4521638184956 -86.0485441292282 94.1
  endloop
endfacet
facet normal 0 0 1
  outer loop
    vertex -89.96065 -89.7291969229831 94.1
    vertex -84.4521638184956 -86.0485441292282 94.1
    vertex -85.2760675746391 -85.0446144976222 94.1
  endloop
endfacet
facet normal 0 0 1
  outer loop
    vertex -89.96065 -89.7291969229831 94.1
    vertex -85.2760675746391 -85.0446144976222 94.1
    vertex -86.2799972062451 -84.2207107414787 94.1
  endloop
endfacet
facet normal 0 0 1
  outer loop
    vertex -89.96065 -89.7291969229831 94.1
    vertex -86.2799972062451 -84.2207107414787 94.1
    vertex -87.4253722605813 -83.6084950200958 94.1
  endloop
endfacet
facet normal 0 0 1
  outer loop
    vertex -89.96065 -89.7291969229831 94.1
    vertex -87.4253722605813 -83.6084950200958 94.1
    vertex -88.6681766166432 -83.2314944403117 94.1
  endloop
endfacet
facet normal 0 0 1
  outer loop
    vertex -89.96065 -89.7291969229831 94.1
    vertex -88.6681766166432 -83.2314944403117 94.1
    vertex -89.96065 -83.1041969229831 94.1
  endloop
endfacet
facet normal 0 0 1
  outer loop
    vertex -89.96065 -89.7291969229831 94.1
    vertex -89.96065 -83.1041969229831 94.1
    vertex -91.2531233833569 -83.2314944403117 94.1
  endloop
endfacet
facet normal 0 0 1
  outer loop
    vertex -89.96065 -89.7291969229831 94.1
    vertex -91.2531233833569 -83.2314944403117 94.1
    vertex -92.4959277394187 -83.6084950200958 94.1
  endloop
endfacet
facet normal 0 0 1
  outer loop
    vertex -89.96065 -89.7291969229831 94.1
    vertex -92.4959277394187 -83.6084950200958 94.1
    vertex -93.6413027937549 -84.2207107414787 94.1
  endloop
endfacet
facet normal 0 0 1
  outer loop
    vertex -89.96065 -89.7291969229831 94.1
    vertex -93.6413027937549 -84.2207107414787 94.1
    vertex -94.6452324253609 -85.0446144976222 94.1
  endloop
endfacet
facet normal 0 0 1
  outer loop
    vertex -89.96065 -89.7291969229831 94.1
    vertex -94.6452324253609 -85.0446144976222 94.1
    vertex -95.4691361815044 -86.0485441292282 94.1
  endloop
endfacet
facet normal 0 0 1
  outer loop
    vertex -89.96065 -89.7291969229831 94.1
    vertex -95.4691361815044 -86.0485441292282 94.1
    vertex -96.0813519028873 -87.1939191835644 94.1
  endloop
endfacet
facet normal 0 0 1
  outer loop
    vertex -89.96065 -89.7291969229831 94.1
    vertex -96.0813519028873 -87.1939191835644 94.1
    vertex -96.4583524826714 -88.4367235396262 94.1
  endloop
endfacet
facet normal 0 0 1
  outer loop
    vertex -89.96065 -89.7291969229831 94.1
    vertex -96.4583524826714 -88.4367235396262 94.1
    vertex -96.58565 -89.7291969229831 94.1
  endloop
endfacet
facet normal 0 0 1
  outer loop
    vertex -89.96065 -89.7291969229831 94.1
    vertex -96.58565 -89.7291969229831 94.1
    vertex -96.4583524826714 -91.0216703063399 94.1
  endloop
endfacet
facet normal 0 0 1
  outer loop
    vertex -89.96065 -89.7291969229831 94.1
    vertex -96.4583524826714 -91.0216703063399 94.1
    vertex -96.0813519028873 -92.2644746624018 94.1
  endloop
endfacet
facet normal 0 0 1
  outer loop
    vertex -89.96065 -89.7291969229831 94.1
    vertex -96.0813519028873 -92.2644746624018 94.1
    vertex -95.4691361815044 -93.4098497167379 94.1
  endloop
endfacet
facet normal 0 0 1
  outer loop
    vertex -89.96065 -89.7291969229831 94.1
    vertex -95.4691361815044 -93.4098497167379 94.1
    vertex -94.6452324253609 -94.413779348344 94.1
  endloop
endfacet
facet normal 0 0 1
  outer loop
    vertex -89.96065 -89.7291969229831 94.1
    vertex -94.6452324253609 -94.413779348344 94.1
    vertex -93.6413027937549 -95.2376831044874 94.1
  endloop
endfacet
facet normal 0 0 1
  outer loop
    vertex -89.96065 -89.7291969229831 94.1
    vertex -93.6413027937549 -95.2376831044874 94.1
    vertex -92.4959277394187 -95.8498988258704 94.1
  endloop
endfacet
facet normal 0 0 1
  outer loop
    vertex -89.96065 -89.7291969229831 94.1
    vertex -92.4959277394187 -95.8498988258704 94.1
    vertex -91.2531233833569 -96.2268994056545 94.1
  endloop
endfacet
facet normal 0 0 1
  outer loop
    vertex -89.96065 -89.7291969229831 94.1
    vertex -91.2531233833569 -96.2268994056545 94.1
    vertex -89.96065 -96.3541969229831 94.1
  endloop
endfacet
facet normal 0 0 1
  outer loop
    vertex -89.96065 -89.7291969229831 94.1
    vertex -89.96065 -96.3541969229831 94.1
    vertex -88.6681766166432 -96.2268994056545 94.1
  endloop
endfacet
facet normal 0 0 1
  outer loop
    vertex -89.96065 -89.7291969229831 94.1
    vertex -88.6681766166432 -96.2268994056545 94.1
    vertex -87.4253722605813 -95.8498988258704 94.1
  endloop
endfacet
facet normal 0 0 1
  outer loop
    vertex -89.96065 -89.7291969229831 94.1
    vertex -87.4253722605813 -95.8498988258704 94.1
    vertex -86.2799972062451 -95.2376831044874 94.1
  endloop
endfacet
facet normal 0 0 1
  outer loop
    vertex -89.96065 -89.7291969229831 94.1
    vertex -86.2799972062451 -95.2376831044874 94.1
    vertex -85.2760675746391 -94.413779348344 94.1
  endloop
endfacet
facet normal 0 0 1
  outer loop
    vertex -89.96065 -89.7291969229831 94.1
    vertex -85.2760675746391 -94.413779348344 94.1
    vertex -84.4521638184956 -93.4098497167379 94.1
  endloop
endfacet
facet normal 0 0 1
  outer loop
    vertex -89.96065 -89.7291969229831 94.1
    vertex -84.4521638184956 -93.4098497167379 94.1
    vertex -83.8399480971127 -92.2644746624018 94.1
  endloop
endfacet
facet normal 0 0 1
  outer loop
    vertex -89.96065 -89.7291969229831 94.1
    vertex -83.8399480971127 -92.2644746624018 94.1
    vertex -83.4629475173286 -91.0216703063399 94.1
  endloop
endfacet
facet normal 0 0 1
  outer loop
    vertex -89.96065 -89.7291969229831 94.1
    vertex -83.4629475173286 -91.0216703063399 94.1
    vertex -83.33565 -89.7291969229831 94.1
  endloop
endfacet
facet normal .995184726672197 9.80171403295576E-02 0
  outer loop
    vertex -83.33565 -89.7291969229831 94
    vertex -83.4629475173286 -88.4367235396262 94.1
    vertex -83.33565 -89.7291969229831 94.1
  endloop
endfacet
facet normal .956940335732211 .290284677254456 0
  outer loop
    vertex -83.4629475173286 -88.4367235396262 94
    vertex -83.8399480971127 -87.1939191835644 94.1
    vertex -83.4629475173286 -88.4367235396262 94.1
  endloop
endfacet
facet normal .881921264348365 .471396736825979 0
  outer loop
    vertex -83.8399480971127 -87.1939191835644 94
    vertex -84.4521638184956 -86.0485441292282 94.1
    vertex -83.8399480971127 -87.1939191835644 94.1
  endloop
endfacet
facet normal .773010453362729 .634393284163655 0
  outer loop
    vertex -84.4521638184956 -86.0485441292282 94
    vertex -85.2760675746391 -85.0446144976222 94.1
    vertex -84.4521638184956 -86.0485441292282 94.1
  endloop
endfacet
facet normal .634393284163661 .773010453362724 0
  outer loop
    vertex -85.2760675746391 -85.0446144976222 94
    vertex -86.2799972062451 -84.2207107414787 94.1
    vertex -85.2760675746391 -85.0446144976222 94.1
  endloop
endfacet
facet normal .47139673682597 .88192126434837 0
  outer loop
    vertex -86.2799972062451 -84.2207107414787 94
    vertex -87.4253722605813 -83.6084950200958 94.1
    vertex -86.2799972062451 -84.2207107414787 94.1
  endloop
endfacet
facet normal .290284677254434 .956940335732217 0
  outer loop
    vertex -87.4253722605813 -83.6084950200958 94
    vertex -88.6681766166432 -83.2314944403117 94.1
    vertex -87.4253722605813 -83.6084950200958 94.1
  endloop
endfacet
facet normal 9.80171403295651E-02 .995184726672197 0
  outer loop
    vertex -88.6681766166432 -83.2314944403117 94
    vertex -89.96065 -83.1041969229831 94.1
    vertex -88.6681766166432 -83.2314944403117 94.1
  endloop
endfacet
facet normal -9.80171403295587E-02 .995184726672197 0
  outer loop
    vertex -89.96065 -83.1041969229831 94
    vertex -91.2531233833569 -83.2314944403117 94.1
    vertex -89.96065 -83.1041969229831 94.1
  endloop
endfacet
facet normal -.290284677254453 .956940335732212 0
  outer loop
    vertex -91.2531233833569 -83.2314944403117 94
    vertex -92.4959277394187 -83.6084950200958 94.1
    vertex -91.2531233833569 -83.2314944403117 94.1
  endloop
endfacet
facet normal -.47139673682597 .88192126434837 0
  outer loop
    vertex -92.4959277394187 -83.6084950200958 94
    vertex -93.6413027937549 -84.2207107414787 94.1
    vertex -92.4959277394187 -83.6084950200958 94.1
  endloop
endfacet
facet normal -.634393284163661 .773010453362724 0
  outer loop
    vertex -93.6413027937549 -84.2207107414787 94
    vertex -94.6452324253609 -85.0446144976222 94.1
    vertex -93.6413027937549 -84.2207107414787 94.1
  endloop
endfacet
facet normal -.773010453362729 .634393284163655 0
  outer loop
    vertex -94.6452324253609 -85.0446144976222 94
    vertex -95.4691361815044 -86.0485441292282 94.1
    vertex -94.6452324253609 -85.0446144976222 94.1
  endloop
endfacet
facet normal -.881921264348365 .471396736825979 0
  outer loop
    vertex -95.4691361815044 -86.0485441292282 94
    vertex -96.0813519028873 -87.1939191835644 94.1
    vertex -95.4691361815044 -86.0485441292282 94.1
  endloop
endfacet
facet normal -.956940335732211 .290284677254456 0
  outer loop
    vertex -96.0813519028873 -87.1939191835644 94
    vertex -96.4583524826714 -88.4367235396262 94.1
    vertex -96.0813519028873 -87.1939191835644 94.1
  endloop
endfacet
facet normal -.995184726672197 9.80171403295576E-02 0
  outer loop
    vertex -96.4583524826714 -88.4367235396262 94
    vertex -96.58565 -89.7291969229831 94.1
    vertex -96.4583524826714 -88.4367235396262 94.1
  endloop
endfacet
facet normal -.995184726672196 -9.80171403295662E-02 0
  outer loop
    vertex -96.58565 -89.7291969229831 94
    vertex -96.4583524826714 -91.0216703063399 94.1
    vertex -96.58565 -89.7291969229831 94.1
  endloop
endfacet
facet normal -.956940335732217 -.290284677254434 0
  outer loop
    vertex -96.4583524826714 -91.0216703063399 94
    vertex -96.0813519028873 -92.2644746624018 94.1
    vertex -96.4583524826714 -91.0216703063399 94.1
  endloop
endfacet
facet normal -.881921264348348 -.471396736826011 0
  outer loop
    vertex -96.0813519028873 -92.2644746624018 94
    vertex -95.4691361815044 -93.4098497167379 94.1
    vertex -96.0813519028873 -92.2644746624018 94.1
  endloop
endfacet
facet normal -.77301045336276 -.634393284163617 0
  outer loop
    vertex -95.4691361815044 -93.4098497167379 94
    vertex -94.6452324253609 -94.413779348344 94.1
    vertex -95.4691361815044 -93.4098497167379 94.1
  endloop
endfacet
facet normal -.634393284163616 -.773010453362761 0
  outer loop
    vertex -94.6452324253609 -94.413779348344 94
    vertex -93.6413027937549 -95.2376831044874 94.1
    vertex -94.6452324253609 -94.413779348344 94.1
  endloop
endfacet
facet normal -.47139673682603 -.881921264348338 0
  outer loop
    vertex -93.6413027937549 -95.2376831044874 94
    vertex -92.4959277394187 -95.8498988258704 94.1
    vertex -93.6413027937549 -95.2376831044874 94.1
  endloop
endfacet
facet normal -.290284677254463 -.956940335732209 0
  outer loop
    vertex -92.4959277394187 -95.8498988258704 94
    vertex -91.2531233833569 -96.2268994056545 94.1
    vertex -92.4959277394187 -95.8498988258704 94.1
  endloop
endfacet
facet normal -9.80171403295587E-02 -.995184726672197 0
  outer loop
    vertex -91.2531233833569 -96.2268994056545 94
    vertex -89.96065 -96.3541969229831 94.1
    vertex -91.2531233833569 -96.2268994056545 94.1
  endloop
endfacet
facet normal 9.80171403295651E-02 -.995184726672197 0
  outer loop
    vertex -89.96065 -96.3541969229831 94
    vertex -88.6681766166432 -96.2268994056545 94.1
    vertex -89.96065 -96.3541969229831 94.1
  endloop
endfacet
facet normal .290284677254444 -.956940335732214 0
  outer loop
    vertex -88.6681766166432 -96.2268994056545 94
    vertex -87.4253722605813 -95.8498988258704 94.1
    vertex -88.6681766166432 -96.2268994056545 94.1
  endloop
endfacet
facet normal .47139673682603 -.881921264348338 0
  outer loop
    vertex -87.4253722605813 -95.8498988258704 94
    vertex -86.2799972062451 -95.2376831044874 94.1
    vertex -87.4253722605813 -95.8498988258704 94.1
  endloop
endfacet
facet normal .634393284163616 -.773010453362761 0
  outer loop
    vertex -86.2799972062451 -95.2376831044874 94
    vertex -85.2760675746391 -94.413779348344 94.1
    vertex -86.2799972062451 -95.2376831044874 94.1
  endloop
endfacet
facet normal .77301045336276 -.634393284163617 0
  outer loop
    vertex -85.2760675746391 -94.413779348344 94
    vertex -84.4521638184956 -93.4098497167379 94.1
    vertex -85.2760675746391 -94.413779348344 94.1
  endloop
endfacet
facet normal .881921264348348 -.471396736826011 0
  outer loop
    vertex -84.4521638184956 -93.4098497167379 94
    vertex -83.8399480971127 -92.2644746624018 94.1
    vertex -84.4521638184956 -93.4098497167379 94.1
  endloop
endfacet
facet normal .956940335732217 -.290284677254434 0
  outer loop
    vertex -83.8399480971127 -92.2644746624018 94
    vertex -83.4629475173286 -91.0216703063399 94.1
    vertex -83.8399480971127 -92.2644746624018 94.1
  endloop
endfacet
facet normal .995184726672196 -9.80171403295662E-02 0
  outer loop
    vertex -83.4629475173286 -91.0216703063399 94
    vertex -83.33565 -89.7291969229831 94.1
    vertex -83.4629475173286 -91.0216703063399 94.1
  endloop
endfacet
facet normal .995184726672197 9.80171403295576E-02 0
  outer loop
    vertex -83.4629475173286 -88.4367235396262 94
    vertex -83.4629475173286 -88.4367235396262 94.1
    vertex -83.33565 -89.7291969229831 94
  endloop
endfacet
facet normal .956940335732211 .290284677254456 0
  outer loop
    vertex -83.8399480971127 -87.1939191835644 94
    vertex -83.8399480971127 -87.1939191835644 94.1
    vertex -83.4629475173286 -88.4367235396262 94
  endloop
endfacet
facet normal .881921264348365 .471396736825979 0
  outer loop
    vertex -84.4521638184956 -86.0485441292282 94
    vertex -84.4521638184956 -86.0485441292282 94.1
    vertex -83.8399480971127 -87.1939191835644 94
  endloop
endfacet
facet normal .773010453362729 .634393284163655 0
  outer loop
    vertex -85.2760675746391 -85.0446144976222 94
    vertex -85.2760675746391 -85.0446144976222 94.1
    vertex -84.4521638184956 -86.0485441292282 94
  endloop
endfacet
facet normal .634393284163661 .773010453362724 0
  outer loop
    vertex -86.2799972062451 -84.2207107414787 94
    vertex -86.2799972062451 -84.2207107414787 94.1
    vertex -85.2760675746391 -85.0446144976222 94
  endloop
endfacet
facet normal .47139673682597 .88192126434837 0
  outer loop
    vertex -87.4253722605813 -83.6084950200958 94
    vertex -87.4253722605813 -83.6084950200958 94.1
    vertex -86.2799972062451 -84.2207107414787 94
  endloop
endfacet
facet normal .290284677254434 .956940335732217 0
  outer loop
    vertex -88.6681766166432 -83.2314944403117 94
    vertex -88.6681766166432 -83.2314944403117 94.1
    vertex -87.4253722605813 -83.6084950200958 94
  endloop
endfacet
facet normal 9.80171403295651E-02 .995184726672197 0
  outer loop
    vertex -89.96065 -83.1041969229831 94
    vertex -89.96065 -83.1041969229831 94.1
    vertex -88.6681766166432 -83.2314944403117 94
  endloop
endfacet
facet normal -9.80171403295587E-02 .995184726672197 0
  outer loop
    vertex -91.2531233833569 -83.2314944403117 94
    vertex -91.2531233833569 -83.2314944403117 94.1
    vertex -89.96065 -83.1041969229831 94
  endloop
endfacet
facet normal -.290284677254453 .956940335732212 0
  outer loop
    vertex -92.4959277394187 -83.6084950200958 94
    vertex -92.4959277394187 -83.6084950200958 94.1
    vertex -91.2531233833569 -83.2314944403117 94
  endloop
endfacet
facet normal -.47139673682597 .88192126434837 0
  outer loop
    vertex -93.6413027937549 -84.2207107414787 94
    vertex -93.6413027937549 -84.2207107414787 94.1
    vertex -92.4959277394187 -83.6084950200958 94
  endloop
endfacet
facet normal -.634393284163661 .773010453362724 0
  outer loop
    vertex -94.6452324253609 -85.0446144976222 94
    vertex -94.6452324253609 -85.0446144976222 94.1
    vertex -93.6413027937549 -84.2207107414787 94
  endloop
endfacet
facet normal -.773010453362729 .634393284163655 0
  outer loop
    vertex -95.4691361815044 -86.0485441292282 94
    vertex -95.4691361815044 -86.0485441292282 94.1
    vertex -94.6452324253609 -85.0446144976222 94
  endloop
endfacet
facet normal -.881921264348365 .471396736825979 0
  outer loop
    vertex -96.0813519028873 -87.1939191835644 94
    vertex -96.0813519028873 -87.1939191835644 94.1
    vertex -95.4691361815044 -86.0485441292282 94
  endloop
endfacet
facet normal -.956940335732211 .290284677254456 0
  outer loop
    vertex -96.4583524826714 -88.4367235396262 94
    vertex -96.4583524826714 -88.4367235396262 94.1
    vertex -96.0813519028873 -87.1939191835644 94
  endloop
endfacet
facet normal -.995184726672197 9.80171403295576E-02 0
  outer loop
    vertex -96.58565 -89.7291969229831 94
    vertex -96.58565 -89.7291969229831 94.1
    vertex -96.4583524826714 -88.4367235396262 94
  endloop
endfacet
facet normal -.995184726672196 -9.80171403295662E-02 0
  outer loop
    vertex -96.4583524826714 -91.0216703063399 94
    vertex -96.4583524826714 -91.0216703063399 94.1
    vertex -96.58565 -89.7291969229831 94
  endloop
endfacet
facet normal -.956940335732217 -.290284677254434 0
  outer loop
    vertex -96.0813519028873 -92.2644746624018 94
    vertex -96.0813519028873 -92.2644746624018 94.1
    vertex -96.4583524826714 -91.0216703063399 94
  endloop
endfacet
facet normal -.881921264348348 -.471396736826011 0
  outer loop
    vertex -95.4691361815044 -93.4098497167379 94
    vertex -95.4691361815044 -93.4098497167379 94.1
    vertex -96.0813519028873 -92.2644746624018 94
  endloop
endfacet
facet normal -.77301045336276 -.634393284163617 0
  outer loop
    vertex -94.6452324253609 -94.413779348344 94
    vertex -94.6452324253609 -94.413779348344 94.1
    vertex -95.4691361815044 -93.4098497167379 94
  endloop
endfacet
facet normal -.634393284163616 -.773010453362761 0
  outer loop
    vertex -93.6413027937549 -95.2376831044874 94
    vertex -93.6413027937549 -95.2376831044874 94.1
    vertex -94.6452324253609 -94.413779348344 94
  endloop
endfacet
facet normal -.47139673682603 -.881921264348338 0
  outer loop
    vertex -92.4959277394187 -95.8498988258704 94
    vertex -92.4959277394187 -95.8498988258704 94.1
    vertex -93.6413027937549 -95.2376831044874 94
  endloop
endfacet
facet normal -.290284677254463 -.956940335732209 0
  outer loop
    vertex -91.2531233833569 -96.2268994056545 94
    vertex -91.2531233833569 -96.2268994056545 94.1
    vertex -92.4959277394187 -95.8498988258704 94
  endloop
endfacet
facet normal -9.80171403295587E-02 -.995184726672197 0
  outer loop
    vertex -89.96065 -96.3541969229831 94
    vertex -89.96065 -96.3541969229831 94.1
    vertex -91.2531233833569 -96.2268994056545 94
  endloop
endfacet
facet normal 9.80171403295651E-02 -.995184726672197 0
  outer loop
    vertex -88.6681766166432 -96.2268994056545 94
    vertex -88.6681766166432 -96.2268994056545 94.1
    vertex -89.96065 -96.3541969229831 94
  endloop
endfacet
facet normal .290284677254444 -.956940335732214 0
  outer loop
    vertex -87.4253722605813 -95.8498988258704 94
    vertex -87.4253722605813 -95.8498988258704 94.1
    vertex -88.6681766166432 -96.2268994056545 94
  endloop
endfacet
facet normal .47139673682603 -.881921264348338 0
  outer loop
    vertex -86.2799972062451 -95.2376831044874 94
    vertex -86.2799972062451 -95.2376831044874 94.1
    vertex -87.4253722605813 -95.8498988258704 94
  endloop
endfacet
facet normal .634393284163616 -.773010453362761 0
  outer loop
    vertex -85.2760675746391 -94.413779348344 94
    vertex -85.2760675746391 -94.413779348344 94.1
    vertex -86.2799972062451 -95.2376831044874 94
  endloop
endfacet
facet normal .77301045336276 -.634393284163617 0
  outer loop
    vertex -84.4521638184956 -93.4098497167379 94
    vertex -84.4521638184956 -93.4098497167379 94.1
    vertex -85.2760675746391 -94.413779348344 94
  endloop
endfacet
facet normal .881921264348348 -.471396736826011 0
  outer loop
    vertex -83.8399480971127 -92.2644746624018 94
    vertex -83.8399480971127 -92.2644746624018 94.1
    vertex -84.4521638184956 -93.4098497167379 94
  endloop
endfacet
facet normal .956940335732217 -.290284677254434 0
  outer loop
    vertex -83.4629475173286 -91.0216703063399 94
    vertex -83.4629475173286 -91.0216703063399 94.1
    vertex -83.8399480971127 -92.2644746624018 94
  endloop
endfacet
facet normal .995184726672196 -9.80171403295662E-02 0
  outer loop
    vertex -83.33565 -89.7291969229831 94
    vertex -83.33565 -89.7291969229831 94.1
    vertex -83.4629475173286 -91.0216703063399 94
  endloop
endfacet
facet normal 1 0 0
  outer loop
    vertex 132.5 -122 0
    vertex 132.5 52 87
    vertex 132.5 -122 87
  endloop
endfacet
facet normal 1 0 0
  outer loop
    vertex 132.5 -122 0
    vertex 132.5 52 0
    vertex 132.5 52 87
  endloop
endfacet
facet normal -1 0 0
  outer loop
    vertex -132.5 52 0
    vertex -132.5 -122 87
    vertex -132.5 52 87
  endloop
endfacet
facet normal -1 0 0
  outer loop
    vertex -132.5 52 0
    vertex -132.5 -122 0
    vertex -132.5 -122 87
  endloop
endfacet
facet normal 0 -1 0
  outer loop
    vertex -132.5 -122 0
    vertex 132.5 -122 87
    vertex -132.5 -122 87
  endloop
endfacet
facet normal 0 -1 0
  outer loop
    vertex -132.5 -122 0
    vertex 132.5 -122 0
    vertex 132.5 -122 87
  endloop
endfacet
facet normal 0 1 0
  outer loop
    vertex 132.5 52 0
    vertex -132.5 52 87
    vertex 132.5 52 87
  endloop
endfacet
facet normal 0 1 0
  outer loop
    vertex 132.5 52 0
    vertex -132.5 52 0
    vertex -132.5 52 87
  endloop
endfacet
facet normal 0 0 -1
  outer loop
    vertex 132.5 -122 0
    vertex -132.5 52 0
    vertex 132.5 52 0
  endloop
endfacet
facet normal 0 0 -1
  outer loop
    vertex 132.5 -122 0
    vertex -132.5 -122 0
    vertex -132.5 52 0
  endloop
endfacet
facet normal 0 0 1
  outer loop
    vertex 132.5 -122 87
    vertex 132.5 52 87
    vertex -132.5 52 87
  endloop
endfacet
facet normal 0 0 1
  outer loop
    vertex 132.5 -122 87
    vertex -132.5 52 87
    vertex -132.5 -122 87
  endloop
endfacet
facet normal 0 -1 0
  outer loop
    vertex -106.46065 -183.5 10
    vertex -106.46065 -183.5 0
    vertex -73.46065 -183.5 0
  endloop
endfacet
facet normal 0 -1 0
  outer loop
    vertex -106.46065 -183.5 10
    vertex -73.46065 -183.5 0
    vertex -73.46065 -183.5 10
  endloop
endfacet
facet normal 0 1 0
  outer loop
    vertex -73.4606499999999 -122 55.5
    vertex -73.4606499999999 -122 45.5
    vertex -106.46065 -122 45.5
  endloop
endfacet
facet normal 0 1 0
  outer loop
    vertex -73.4606499999999 -122 55.5
    vertex -106.46065 -122 45.5
    vertex -106.46065 -122 55.5
  endloop
endfacet
facet normal -1 0 0
  outer loop
    vertex -106.46065 -122 45.5
    vertex -106.46065 -143.032451543674 45.5
    vertex -106.46065 -148.032451543674 55.5
  endloop
endfacet
facet normal -1 0 0
  outer loop
    vertex -106.46065 -143.032451543674 45.5
    vertex -106.46065 -165.5 0
    vertex -106.46065 -170.5 10
  endloop
endfacet
facet normal -1 0 0
  outer loop
    vertex -106.46065 -165.5 0
    vertex -106.46065 -183.5 0
    vertex -106.46065 -183.5 10
  endloop
endfacet
facet normal -1 0 0
  outer loop
    vertex -106.46065 -122 45.5
    vertex -106.46065 -148.032451543674 55.5
    vertex -106.46065 -122 55.5
  endloop
endfacet
facet normal -1 0 0
  outer loop
    vertex -106.46065 -143.032451543674 45.5
    vertex -106.46065 -170.5 10
    vertex -106.46065 -148.032451543674 55.5
  endloop
endfacet
facet normal -1 0 0
  outer loop
    vertex -106.46065 -165.5 0
    vertex -106.46065 -183.5 10
    vertex -106.46065 -170.5 10
  endloop
endfacet
facet normal 1 -4.72964279983489E-15 -2.36482139991745E-15
  outer loop
    vertex -73.4606499999999 -122 45.5
    vertex -73.46065 -148.032451543674 55.5
    vertex -73.46065 -143.032451543674 45.5
  endloop
endfacet
facet normal 1 0 0
  outer loop
    vertex -73.46065 -143.032451543674 45.5
    vertex -73.46065 -170.5 10
    vertex -73.46065 -165.5 0
  endloop
endfacet
facet normal 1 0 0
  outer loop
    vertex -73.46065 -165.5 0
    vertex -73.46065 -183.5 10
    vertex -73.46065 -183.5 0
  endloop
endfacet
facet normal 1 -3.82122993063199E-15 0
  outer loop
    vertex -73.4606499999999 -122 45.5
    vertex -73.4606499999999 -122 55.5
    vertex -73.46065 -148.032451543674 55.5
  endloop
endfacet
facet normal 1 0 0
  outer loop
    vertex -73.46065 -143.032451543674 45.5
    vertex -73.46065 -148.032451543674 55.5
    vertex -73.46065 -170.5 10
  endloop
endfacet
facet normal 1 0 0
  outer loop
    vertex -73.46065 -165.5 0
    vertex -73.46065 -170.5 10
    vertex -73.46065 -183.5 10
  endloop
endfacet
facet normal 0 0 1
  outer loop
    vertex -106.46065 -122 55.5
    vertex -106.46065 -148.032451543674 55.5
    vertex -73.46065 -148.032451543674 55.5
  endloop
endfacet
facet normal 0 -.896642551213375 .442755164118467
  outer loop
    vertex -106.46065 -148.032451543674 55.5
    vertex -106.46065 -170.5 10
    vertex -73.46065 -170.5 10
  endloop
endfacet
facet normal 0 0 1
  outer loop
    vertex -106.46065 -170.5 10
    vertex -106.46065 -183.5 10
    vertex -73.46065 -183.5 10
  endloop
endfacet
facet normal 0 0 1
  outer loop
    vertex -106.46065 -122 55.5
    vertex -73.46065 -148.032451543674 55.5
    vertex -73.4606499999999 -122 55.5
  endloop
endfacet
facet normal 0 -.896642551213375 .442755164118467
  outer loop
    vertex -106.46065 -148.032451543674 55.5
    vertex -73.46065 -170.5 10
    vertex -73.46065 -148.032451543674 55.5
  endloop
endfacet
facet normal 0 0 1
  outer loop
    vertex -106.46065 -170.5 10
    vertex -73.46065 -183.5 10
    vertex -73.46065 -170.5 10
  endloop
endfacet
facet normal 0 0 -1
  outer loop
    vertex -106.46065 -122 45.5
    vertex -73.46065 -143.032451543674 45.5
    vertex -106.46065 -143.032451543674 45.5
  endloop
endfacet
facet normal 0 .896642551213375 -.442755164118467
  outer loop
    vertex -106.46065 -143.032451543674 45.5
    vertex -73.46065 -165.5 0
    vertex -106.46065 -165.5 0
  endloop
endfacet
facet normal 0 0 -1
  outer loop
    vertex -106.46065 -165.5 0
    vertex -73.46065 -183.5 0
    vertex -106.46065 -183.5 0
  endloop
endfacet
facet normal 0 0 -1
  outer loop
    vertex -106.46065 -122 45.5
    vertex -73.4606499999999 -122 45.5
    vertex -73.46065 -143.032451543674 45.5
  endloop
endfacet
facet normal 0 .896642551213375 -.442755164118467
  outer loop
    vertex -106.46065 -143.032451543674 45.5
    vertex -73.46065 -143.032451543674 45.5
    vertex -73.46065 -165.5 0
  endloop
endfacet
facet normal 0 0 -1
  outer loop
    vertex -106.46065 -165.5 0
    vertex -73.46065 -165.5 0
    vertex -73.46065 -183.5 0
  endloop
endfacet
facet normal 0 -1 0
  outer loop
    vertex 73.46065 -183.5 10
    vertex 73.46065 -183.5 0
    vertex 106.46065 -183.5 0
  endloop
endfacet
facet normal 0 -1 0
  outer loop
    vertex 73.46065 -183.5 10
    vertex 106.46065 -183.5 0
    vertex 106.46065 -183.5 10
  endloop
endfacet
facet normal 0 1 0
  outer loop
    vertex 106.46065 -122 55.5
    vertex 106.46065 -122 45.5
    vertex 73.46065 -122 45.5
  endloop
endfacet
facet normal 0 1 0
  outer loop
    vertex 106.46065 -122 55.5
    vertex 73.46065 -122 45.5
    vertex 73.46065 -122 55.5
  endloop
endfacet
facet normal -1 0 0
  outer loop
    vertex 73.46065 -122 45.5
    vertex 73.46065 -143.032451543674 45.5
    vertex 73.46065 -148.032451543674 55.5
  endloop
endfacet
facet normal -1 0 0
  outer loop
    vertex 73.46065 -143.032451543674 45.5
    vertex 73.46065 -165.5 0
    vertex 73.46065 -170.5 10
  endloop
endfacet
facet normal -1 0 0
  outer loop
    vertex 73.46065 -165.5 0
    vertex 73.46065 -183.5 0
    vertex 73.46065 -183.5 10
  endloop
endfacet
facet normal -1 0 0
  outer loop
    vertex 73.46065 -122 45.5
    vertex 73.46065 -148.032451543674 55.5
    vertex 73.46065 -122 55.5
  endloop
endfacet
facet normal -1 0 0
  outer loop
    vertex 73.46065 -143.032451543674 45.5
    vertex 73.46065 -170.5 10
    vertex 73.46065 -148.032451543674 55.5
  endloop
endfacet
facet normal -1 0 0
  outer loop
    vertex 73.46065 -165.5 0
    vertex 73.46065 -183.5 10
    vertex 73.46065 -170.5 10
  endloop
endfacet
facet normal 1 0 0
  outer loop
    vertex 106.46065 -122 45.5
    vertex 106.46065 -148.032451543674 55.5
    vertex 106.46065 -143.032451543674 45.5
  endloop
endfacet
facet normal 1 0 0
  outer loop
    vertex 106.46065 -143.032451543674 45.5
    vertex 106.46065 -170.5 10
    vertex 106.46065 -165.5 0
  endloop
endfacet
facet normal 1 0 0
  outer loop
    vertex 106.46065 -165.5 0
    vertex 106.46065 -183.5 10
    vertex 106.46065 -183.5 0
  endloop
endfacet
facet normal 1 0 0
  outer loop
    vertex 106.46065 -122 45.5
    vertex 106.46065 -122 55.5
    vertex 106.46065 -148.032451543674 55.5
  endloop
endfacet
facet normal 1 0 0
  outer loop
    vertex 106.46065 -143.032451543674 45.5
    vertex 106.46065 -148.032451543674 55.5
    vertex 106.46065 -170.5 10
  endloop
endfacet
facet normal 1 0 0
  outer loop
    vertex 106.46065 -165.5 0
    vertex 106.46065 -170.5 10
    vertex 106.46065 -183.5 10
  endloop
endfacet
facet normal 0 0 1
  outer loop
    vertex 73.46065 -122 55.5
    vertex 73.46065 -148.032451543674 55.5
    vertex 106.46065 -148.032451543674 55.5
  endloop
endfacet
facet normal 0 -.896642551213375 .442755164118467
  outer loop
    vertex 73.46065 -148.032451543674 55.5
    vertex 73.46065 -170.5 10
    vertex 106.46065 -170.5 10
  endloop
endfacet
facet normal 0 0 1
  outer loop
    vertex 73.46065 -170.5 10
    vertex 73.46065 -183.5 10
    vertex 106.46065 -183.5 10
  endloop
endfacet
facet normal 0 0 1
  outer loop
    vertex 73.46065 -122 55.5
    vertex 106.46065 -148.032451543674 55.5
    vertex 106.46065 -122 55.5
  endloop
endfacet
facet normal 0 -.896642551213375 .442755164118467
  outer loop
    vertex 73.46065 -148.032451543674 55.5
    vertex 106.46065 -170.5 10
    vertex 106.46065 -148.032451543674 55.5
  endloop
endfacet
facet normal 0 0 1
  outer loop
    vertex 73.46065 -170.5 10
    vertex 106.46065 -183.5 10
    vertex 106.46065 -170.5 10
  endloop
endfacet
facet normal 0 0 -1
  outer loop
    vertex 73.46065 -122 45.5
    vertex 106.46065 -143.032451543674 45.5
    vertex 73.46065 -143.032451543674 45.5
  endloop
endfacet
facet normal 0 .896642551213375 -.442755164118467
  outer loop
    vertex 73.46065 -143.032451543674 45.5
    vertex 106.46065 -165.5 0
    vertex 73.46065 -165.5 0
  endloop
endfacet
facet normal 0 0 -1
  outer loop
    vertex 73.46065 -165.5 0
    vertex 106.46065 -183.5 0
    vertex 73.46065 -183.5 0
  endloop
endfacet
facet normal 0 0 -1
  outer loop
    vertex 73.46065 -122 45.5
    vertex 106.46065 -122 45.5
    vertex 106.46065 -143.032451543674 45.5
  endloop
endfacet
facet normal 0 .896642551213375 -.442755164118467
  outer loop
    vertex 73.46065 -143.032451543674 45.5
    vertex 106.46065 -143.032451543674 45.5
    vertex 106.46065 -165.5 0
  endloop
endfacet
facet normal 0 0 -1
  outer loop
    vertex 73.46065 -165.5 0
    vertex 106.46065 -165.5 0
    vertex 106.46065 -183.5 0
  endloop
endfacet
facet normal 0 0 1
  outer loop
    vertex -82.5 -121.9 0
    vertex 82.5 -121.9 0
    vertex 82.5 22.1 0
  endloop
endfacet
facet normal 0 0 1
  outer loop
    vertex -82.5 -121.9 0
    vertex 82.5 22.1 0
    vertex -82.5 22.1 0
  endloop
endfacet
facet normal 0 0 1
  outer loop
    vertex -17.5 52.1 48
    vertex 132.5 87.1 48
    vertex -17.5 122.1 48
  endloop
endfacet
facet normal 0 0 1
  outer loop
    vertex -17.5 52.1 48
    vertex 132.5 52.1 48
    vertex 132.5 87.1 48
  endloop
endfacet
facet normal 0 0 1
  outer loop
    vertex 17.5 52.1 48
    vertex -132.5 87.1 48
    vertex -132.5 52.1 48
  endloop
endfacet
facet normal 0 0 1
  outer loop
    vertex 17.5 52.1 48
    vertex 17.5 122.1 48
    vertex -132.5 87.1 48
  endloop
endfacet
facet normal 0 0 -1
  outer loop
    vertex -82.5 -121.9 -2
    vertex 82.5 22.1 -2
    vertex 82.5 -121.9 -2
  endloop
endfacet
facet normal 0 0 -1
  outer loop
    vertex -82.5 -121.9 -2
    vertex -82.5 22.1 -2
    vertex 82.5 22.1 -2
  endloop
endfacet
facet normal 0 0 1
  outer loop
    vertex -17.5 22.1 -2
    vertex 17.5 122.1 -2
    vertex -17.5 122.1 -2
  endloop
endfacet
facet normal 0 0 1
  outer loop
    vertex 17.5 22.1 -2
    vertex 17.5 122.1 -2
    vertex -17.5 22.1 -2
  endloop
endfacet
facet normal 0 0 -1
  outer loop
    vertex -17.5 52.1 -2
    vertex -17.5 122.1 -2
    vertex 132.5 87.1 -2
  endloop
endfacet
facet normal 0 0 -1
  outer loop
    vertex -17.5 52.1 -2
    vertex 132.5 87.1 -2
    vertex 132.5 52.1 -2
  endloop
endfacet
facet normal 0 0 -1
  outer loop
    vertex 17.5 52.1 -2
    vertex -132.5 52.1 -2
    vertex -132.5 87.1 -2
  endloop
endfacet
facet normal 0 0 -1
  outer loop
    vertex 17.5 52.1 -2
    vertex -132.5 87.1 -2
    vertex 17.5 122.1 -2
  endloop
endfacet
facet normal 0 0 -1
  outer loop
    vertex 17.5 122.1 48
    vertex 17.5 52.1 48
    vertex -17.5 122.1 48
  endloop
endfacet
facet normal 0 0 -1
  outer loop
    vertex 17.5 52.1 48
    vertex -17.5 52.1 48
    vertex -17.5 122.1 48
  endloop
endfacet
facet normal 0 1 0
  outer loop
    vertex 17.5 52.1 48
    vertex 17.5 52.1 0
    vertex -17.5 52.1 0
  endloop
endfacet
facet normal 0 1 0
  outer loop
    vertex 17.5 52.1 48
    vertex -17.5 52.1 0
    vertex -17.5 52.1 48
  endloop
endfacet
facet normal 0 0 -1
  outer loop
    vertex 17.5 52.1 0
    vertex 17.5 22.1 0
    vertex -17.5 22.1 0
  endloop
endfacet
facet normal 0 0 -1
  outer loop
    vertex -17.5 22.1 0
    vertex -17.5 52.1 0
    vertex 17.5 52.1 0
  endloop
endfacet
facet normal -1 0 0
  outer loop
    vertex -82.5 22.1 -2
    vertex -82.5 -121.9 0
    vertex -82.5 22.1 0
  endloop
endfacet
facet normal -1 0 0
  outer loop
    vertex -82.5 22.1 -2
    vertex -82.5 -121.9 -2
    vertex -82.5 -121.9 0
  endloop
endfacet
facet normal 0 -1 0
  outer loop
    vertex -82.5 -121.9 0
    vertex -82.5 -121.9 -2
    vertex 82.5 -121.9 0
  endloop
endfacet
facet normal 0 -1 0
  outer loop
    vertex -82.5 -121.9 -2
    vertex 82.5 -121.9 -2
    vertex 82.5 -121.9 0
  endloop
endfacet
facet normal 1 0 0
  outer loop
    vertex 82.5 -121.9 0
    vertex 82.5 -121.9 -2
    vertex 82.5 22.1 -2
  endloop
endfacet
facet normal 1 0 0
  outer loop
    vertex 82.5 -121.9 0
    vertex 82.5 22.1 -2
    vertex 82.5 22.1 0
  endloop
endfacet
facet normal 0 1 0
  outer loop
    vertex 82.5 22.1 0
    vertex -17.5 22.1 -2
    vertex -17.5 22.1 0
  endloop
endfacet
facet normal 0 1 0
  outer loop
    vertex 82.5 22.1 -2
    vertex -17.5 22.1 -2
    vertex 82.5 22.1 0
  endloop
endfacet
facet normal 1 0 0
  outer loop
    vertex -17.5 22.1 0
    vertex -17.5 52.1 -2
    vertex -17.5 52.1 0
  endloop
endfacet
facet normal 1 0 0
  outer loop
    vertex -17.5 22.1 0
    vertex -17.5 22.1 -2
    vertex -17.5 52.1 -2
  endloop
endfacet
facet normal 0 -1 0
  outer loop
    vertex -17.5 52.1 48
    vertex 132.5 52.1 -2
    vertex 132.5 52.1 48
  endloop
endfacet
facet normal 0 -1 0
  outer loop
    vertex -17.5 52.1 48
    vertex -17.5 52.1 -2
    vertex 132.5 52.1 -2
  endloop
endfacet
facet normal 1 0 0
  outer loop
    vertex 132.5 52.1 48
    vertex 132.5 87.1 -2
    vertex 132.5 87.1 48
  endloop
endfacet
facet normal 1 0 0
  outer loop
    vertex 132.5 52.1 48
    vertex 132.5 52.1 -2
    vertex 132.5 87.1 -2
  endloop
endfacet
facet normal .227229615606418 .973841209741793 0
  outer loop
    vertex 132.5 87.1 48
    vertex -17.5 122.1 -2
    vertex -17.5 122.1 48
  endloop
endfacet
facet normal .227229615606418 .973841209741793 0
  outer loop
    vertex 132.5 87.1 48
    vertex 132.5 87.1 -2
    vertex -17.5 122.1 -2
  endloop
endfacet
facet normal 0 -1 0
  outer loop
    vertex -17.5 122.1 48
    vertex 17.5 122.1 -2
    vertex 17.5 122.1 48
  endloop
endfacet
facet normal 0 -1 0
  outer loop
    vertex -17.5 122.1 48
    vertex -17.5 122.1 -2
    vertex 17.5 122.1 -2
  endloop
endfacet
facet normal -.227229615606418 .973841209741793 0
  outer loop
    vertex 17.5 122.1 48
    vertex -132.5 87.1 -2
    vertex -132.5 87.1 48
  endloop
endfacet
facet normal -.227229615606418 .973841209741793 0
  outer loop
    vertex 17.5 122.1 48
    vertex 17.5 122.1 -2
    vertex -132.5 87.1 -2
  endloop
endfacet
facet normal -1 0 0
  outer loop
    vertex -132.5 87.1 48
    vertex -132.5 52.1 -2
    vertex -132.5 52.1 48
  endloop
endfacet
facet normal -1 0 0
  outer loop
    vertex -132.5 87.1 48
    vertex -132.5 87.1 -2
    vertex -132.5 52.1 -2
  endloop
endfacet
facet normal 0 -1 0
  outer loop
    vertex -132.5 52.1 48
    vertex 17.5 52.1 -2
    vertex 17.5 52.1 48
  endloop
endfacet
facet normal 0 -1 0
  outer loop
    vertex -132.5 52.1 48
    vertex -132.5 52.1 -2
    vertex 17.5 52.1 -2
  endloop
endfacet
facet normal -1 0 0
  outer loop
    vertex 17.5 52.1 0
    vertex 17.5 22.1 -2
    vertex 17.5 22.1 0
  endloop
endfacet
facet normal -1 0 0
  outer loop
    vertex 17.5 52.1 0
    vertex 17.5 52.1 -2
    vertex 17.5 22.1 -2
  endloop
endfacet
facet normal 0 1 0
  outer loop
    vertex 17.5 22.1 0
    vertex 17.5 22.1 -2
    vertex -82.5 22.1 -2
  endloop
endfacet
facet normal 0 1 0
  outer loop
    vertex 17.5 22.1 0
    vertex -82.5 22.1 -2
    vertex -82.5 22.1 0
  endloop
endfacet
endsolid TD03B-M
